<?xml version="1.0" encoding="UTF-8" standalone="no"?><!DOCTYPE svg PUBLIC "-//W3C//DTD SVG 1.1//EN" "http://www.w3.org/Graphics/SVG/1.1/DTD/svg11.dtd"><svg width="100%" height="100%" viewBox="0 0 2000 2000" version="1.1" xmlns="http://www.w3.org/2000/svg" xmlns:xlink="http://www.w3.org/1999/xlink" xml:space="preserve" xmlns:serif="http://www.serif.com/" style="fill-rule:evenodd;clip-rule:evenodd;stroke-linejoin:round;stroke-miterlimit:2;"><g><path d="M850.356,21.389l-8.619,56.487l-34.793,-47.86l-1.177,0.234l-13.875,57.397l-29.145,-48.847l-19.483,3.872l54.326,88.695l1.7,-0.338l15.071,-60.952l36.971,50.61l1.831,-0.364l16.675,-102.806l-19.482,3.872Z" style="fill:#fff;fill-rule:nonzero;"/><path d="M914.453,112.253l6.516,-15.76l45.907,-2.804l8.52,14.841l20.226,-1.235l-55.716,-94.362l-1.863,0.114l-43.816,100.442l20.226,-1.236Zm26.749,-62.798l15.635,28.567l-27.81,1.699l12.175,-30.266Z" style="fill:#fff;fill-rule:nonzero;"/><path d="M1079.12,13.563l-74.451,-3.114l-0.691,16.502l27.976,1.17l-3.388,80.996l18.633,0.78l3.389,-80.996l27.842,1.164l0.69,-16.502Z" style="fill:#fff;fill-rule:nonzero;"/><path d="M1182.58,59.403l18.368,-4.201c-4.619,-14.922 -18.004,-29.085 -39.461,-32.54c-27.513,-4.431 -53.391,13.805 -57.908,41.85c-4.558,28.309 14.329,53.484 41.842,57.914c20.667,3.328 38.136,-4.517 47.661,-18.375l-16.121,-9.755c-6.228,7.642 -15.887,13.111 -28.787,11.034c-17.376,-2.799 -29.108,-19.682 -26.182,-37.852c2.884,-17.908 19.365,-30.518 36.741,-27.72c12.111,1.95 20.376,10.171 23.847,19.645Z" style="fill:#fff;fill-rule:nonzero;"/><path d="M1311.92,61.122l-12.305,40.296l-46.179,-14.101l12.306,-40.297l-17.71,-5.407l-28.5,93.328l17.71,5.408l11.371,-37.236l46.178,14.102l-11.371,37.236l17.709,5.408l28.5,-93.329l-17.709,-5.408Z" style="fill:#fff;fill-rule:nonzero;"/><path d="M1425.81,219.089c26.912,14.719 55.314,4.436 68.753,-20.135c13.376,-24.455 6.777,-54.035 -20.135,-68.755c-26.795,-14.655 -55.261,-4.255 -68.637,20.2c-13.439,24.571 -6.776,54.034 20.019,68.69Zm40.245,-73.58c15.562,8.512 20.594,29.05 12.146,44.495c-8.512,15.562 -28.52,22.404 -44.082,13.892c-15.445,-8.448 -20.594,-29.05 -12.082,-44.612c8.447,-15.445 28.572,-22.223 44.018,-13.775Z" style="fill:#fff;fill-rule:nonzero;"/><path d="M1531.29,286.666c20.415,15.235 43.186,12.119 58.099,-7.863l34.849,-46.696l-14.946,-11.154l-34.85,46.696c-11.723,15.708 -26.404,11.073 -33.353,5.887c-6.948,-5.185 -15.569,-17.941 -3.846,-33.649l34.849,-46.696l-14.946,-11.155l-34.85,46.696c-14.912,19.982 -11.314,42.778 8.994,57.934Z" style="fill:#fff;fill-rule:nonzero;"/><path d="M1643.13,339.082l-5.579,38.055l15.879,15.586l5.573,-40.487c11.081,6.21 26.024,2.396 36.303,-8.076c13.827,-14.087 13.739,-33.584 -0.44,-47.502l-31.587,-31.005l-68.357,69.641l13.215,12.971l21.762,-22.171l13.231,12.988Zm21.793,-48.67l15.231,14.95c9.805,9.624 8.665,18.973 2.031,25.732c-5.794,5.903 -14.44,9.379 -25.672,-1.647l-15.231,-14.95l23.641,-24.085Z" style="fill:#fff;fill-rule:nonzero;"/><path d="M1856.94,505.799l-62.023,7.269l34.537,-52.027l-10.743,-17.495l-58.949,90.484l0.558,0.909l107.433,-11.532l-10.813,-17.608Z" style="fill:#fff;fill-rule:nonzero;"/><path d="M1893.04,575.009l-8.19,-16.756l-87.672,42.848l8.189,16.756l87.673,-42.848Z" style="fill:#fff;fill-rule:nonzero;"/><path d="M1835.61,689.433c10.944,29.937 34.691,39.411 62.624,29.199c28.059,-10.257 39.788,-33.268 29.027,-62.704l-13.227,-36.182l-91.651,33.505l13.227,36.182Zm69.064,-46.408l6.824,18.665c4.671,12.778 5.715,30.005 -19.838,39.347c-25.428,9.295 -35.57,-4.464 -40.287,-17.367l-6.824,-18.665l60.125,-21.98Z" style="fill:#fff;fill-rule:nonzero;"/><path d="M1955.58,815.874l16.094,-3.713l-16.12,-69.881l-95.086,21.933l16.119,69.882l16.094,-3.713l-11.957,-51.838l23.012,-5.309l10.609,45.993l16.094,-3.713l-10.609,-45.992l23.792,-5.488l11.958,51.839Z" style="fill:#fff;fill-rule:nonzero;"/><path d="M1885.13,912.201c2.994,30.529 27.489,48.205 55.362,45.471c27.74,-2.721 48.465,-24.834 45.47,-55.362c-2.981,-30.395 -27.608,-48.059 -55.349,-45.338c-27.873,2.734 -48.465,24.834 -45.483,55.229Zm83.466,-8.187c1.732,17.653 -12.405,33.379 -29.925,35.097c-17.653,1.732 -34.576,-10.947 -36.307,-28.6c-1.719,-17.521 12.404,-33.379 30.057,-35.111c17.52,-1.718 34.456,11.093 36.175,28.614Z" style="fill:#fff;fill-rule:nonzero;"/><path d="M1884.42,1115.19l13.921,9.852l-7.455,45.384l-16.363,5.013l-3.284,19.996l104.374,-33.382l0.303,-1.841l-88.211,-65.017l-3.285,19.995Zm55.295,40.02l-31.325,8.905l4.517,-27.493l26.808,18.588Z" style="fill:#fff;fill-rule:nonzero;"/><path d="M1839.17,1303.78l93.229,28.825l5.509,-17.817l-56.421,-17.445l75.366,-43.828l0.59,-1.909l-93.229,-28.826l-5.469,17.691l55.402,17.129l-74.387,44.271l-0.59,1.909Z" style="fill:#fff;fill-rule:nonzero;"/><path d="M1809.05,1374.24c-13.58,28.837 -3.61,52.38 23.296,65.052c27.028,12.728 51.634,4.879 64.988,-23.476l16.413,-34.852l-88.284,-41.576l-16.413,34.852Zm81.567,16.446l-8.467,17.979c-5.797,12.308 -17.307,25.168 -41.922,13.577c-24.493,-11.535 -21.847,-28.423 -15.994,-40.851l8.467,-17.98l57.916,27.275Z" style="fill:#fff;fill-rule:nonzero;"/><path d="M1711.73,1563.55l62.597,51.511l11.85,-14.4l-75.35,-62.007l-44.638,54.244l12.753,10.495l32.788,-39.843Z" style="fill:#fff;fill-rule:nonzero;"/><path d="M1651.86,1722.15l11.513,11.844l51.424,-49.99l-68.019,-69.97l-51.424,49.989l11.513,11.843l38.146,-37.083l16.462,16.934l-33.844,32.901l11.512,11.843l33.845,-32.9l17.019,17.507l-38.147,37.082Z" style="fill:#fff;fill-rule:nonzero;"/><path d="M1561.49,1692.68l3.3,16.732l-36.673,27.755l-15.312,-7.641l-16.158,12.229l98.646,47.722l1.488,-1.126l-19.134,-107.9l-16.157,12.229Zm12.5,67.103l-28.838,-15.129l22.217,-16.814l6.621,31.943Z" style="fill:#fff;fill-rule:nonzero;"/><path d="M1456.82,1801.31l-35.036,-15.866l-19.364,10.96l37.377,16.532c-9.027,8.936 -9.486,24.352 -2.258,37.122c9.723,17.178 28.488,22.474 45.779,12.687l38.518,-21.802l-48.069,-84.923l-16.114,9.121l15.303,27.036l-16.136,9.133Zm40.766,34.38l-18.574,10.513c-11.956,6.768 -20.628,3.092 -25.293,-5.15c-4.074,-7.198 -5.029,-16.468 8.668,-24.221l18.573,-10.513l16.626,29.371Z" style="fill:#fff;fill-rule:nonzero;"/><path d="M1296.24,1841.87l36.794,90.381l17.273,-7.032l-22.267,-54.698l81.669,30.516l1.85,-0.754l-36.793,-90.381l-17.15,6.982l21.865,53.71l-81.39,-29.478l-1.851,0.754Z" style="fill:#fff;fill-rule:nonzero;"/><path d="M1068.89,1987.66l41.074,-61.613l54.121,50.412l1.191,-0.141l-11.404,-96.914l-18.522,2.179l5.764,48.987l-34.484,-32.856l-26.048,39.979l-5.764,-48.987l-18.523,2.179l11.404,96.915l1.191,-0.14Z" style="fill:#fff;fill-rule:nonzero;"/><path d="M972.482,1889c-30.661,-0.936 -51.326,21.095 -52.181,49.089c-0.85,27.861 18.429,51.245 49.089,52.181c30.527,0.932 51.197,-21.233 52.047,-49.093c0.855,-27.994 -18.428,-51.245 -48.955,-52.177Zm-2.559,83.828c-17.73,-0.541 -31.518,-16.574 -30.981,-34.17c0.542,-17.729 15.282,-32.89 33.011,-32.349c17.597,0.537 31.517,16.573 30.976,34.303c-0.537,17.596 -15.41,32.753 -33.006,32.216Z" style="fill:#fff;fill-rule:nonzero;"/><path d="M847.116,1909.72l-17.097,-34.453l-21.93,-3.762l18.488,36.448c-12.645,1.21 -22.752,12.858 -25.233,27.321c-3.338,19.455 7.844,35.428 27.426,38.787l43.623,7.483l16.499,-96.178l-18.25,-3.131l-5.252,30.62l-18.274,-3.135Zm9.82,52.415l-21.035,-3.609c-13.541,-2.322 -17.931,-10.655 -16.33,-19.99c1.399,-8.152 6.523,-15.935 22.036,-13.274l21.035,3.609l-5.706,33.264Z" style="fill:#fff;fill-rule:nonzero;"/><path d="M686.119,1921.18l-4.747,15.82l68.691,20.612l28.047,-93.465l-68.691,-20.613l-4.747,15.82l50.956,15.29l-6.788,22.621l-45.209,-13.567l-4.747,15.82l45.209,13.566l-7.018,23.387l-50.956,-15.291Z" style="fill:#fff;fill-rule:nonzero;"/><path d="M567.591,1780l-14.302,9.289l-39.408,-23.712l1.394,-17.056l-17.363,-10.447l-7.59,109.319l1.6,0.963l93.032,-57.909l-17.363,-10.447Zm-57.633,36.571l3.312,-32.396l23.874,14.364l-27.186,18.032Z" style="fill:#fff;fill-rule:nonzero;"/><path d="M375.119,1732.26c-12.202,15.336 -7.112,28.408 6.868,39.533l32.443,25.816l60.761,-76.358l-33.591,-26.73c-13.147,-10.462 -29.429,-15.247 -42.794,1.548c-8.971,11.274 -6.004,24.019 1.171,30.409l-0.083,0.104c-7.755,-5.66 -18.38,-2.363 -24.777,5.676l0.002,0.002Zm57.241,-23.984l17.953,14.286l-15.452,19.419l-17.64,-14.037c-7.515,-5.98 -9.886,-12.641 -4.486,-19.427c5.4,-6.786 12.423,-5.972 19.625,-0.241Zm-22.239,64.796l-16.493,-13.124c-6.263,-4.984 -8.069,-10.855 -3.417,-16.701c4.736,-5.952 10.379,-7.259 17.895,-1.278l16.388,13.041l-14.373,18.062Z" style="fill:#fff;fill-rule:nonzero;"/><path d="M360.269,1617.66c-21.308,-22.067 -51.483,-20.708 -71.631,-1.254c-20.051,19.362 -22.561,49.565 -1.253,71.631c21.215,21.971 51.487,20.519 71.538,1.157c20.147,-19.454 22.561,-49.564 1.346,-71.534Zm-60.331,58.256c-12.321,-12.76 -11.009,-33.865 1.655,-46.093c12.76,-12.321 33.898,-12.895 46.219,-0.135c12.229,12.665 11.009,33.865 -1.751,46.186c-12.664,12.229 -33.894,12.706 -46.123,0.042Z" style="fill:#fff;fill-rule:nonzero;"/><path d="M279.632,1521.73c-14.963,-20.615 -37.631,-24.408 -57.809,-9.762l-47.155,34.226l10.955,15.093l47.155,-34.226c15.862,-11.513 28.502,-2.723 33.595,4.293c5.093,7.016 9.532,21.759 -6.33,33.272l-47.154,34.226l10.955,15.093l47.154,-34.226c20.179,-14.646 23.519,-37.481 8.634,-57.989Z" style="fill:#fff;fill-rule:nonzero;"/><path d="M116.171,1445.25l36.08,65.199l14.451,-7.997l-13.557,-24.499l70.931,-39.251l-9.03,-16.318l-70.931,39.251l-13.492,-24.382l-14.452,7.997Z" style="fill:#fff;fill-rule:nonzero;"/><path d="M36.894,1228.05l19.874,71.818l15.919,-4.405l-7.468,-26.986l78.13,-21.621l-4.974,-17.974l-78.13,21.621l-7.433,-26.858l-15.918,4.405Z" style="fill:#fff;fill-rule:nonzero;"/><path d="M17.97,1119.23l41.696,-6.06l6.944,47.781l-41.695,6.06l2.663,18.324l96.569,-14.035l-2.664,-18.324l-38.528,5.6l-6.944,-47.782l38.528,-5.599l-2.663,-18.324l-96.569,14.034l2.663,18.325Z" style="fill:#fff;fill-rule:nonzero;"/><path d="M27.237,978.251l-16.515,0.236l1.023,71.709l97.573,-1.393l-1.023,-71.709l-16.515,0.236l0.759,53.194l-23.614,0.337l-0.674,-47.195l-16.515,0.236l0.674,47.195l-24.414,0.348l-0.759,-53.194Z" style="fill:#fff;fill-rule:nonzero;"/><path d="M18.832,870.104l96.172,16.537l3.16,-18.381l-28.646,-4.925l3.684,-21.428c4.249,-24.707 -7.128,-39.504 -26.975,-42.917c-19.717,-3.39 -36.55,8.044 -40.528,31.174l-6.867,39.94Zm54.408,-9.568l-34.97,-6.013l3.775,-21.954c1.967,-11.437 11.293,-16.871 21.021,-15.198c9.466,1.627 15.961,9.511 14.062,20.554l-3.888,22.611Z" style="fill:#fff;fill-rule:nonzero;"/><path d="M46.424,737.353l-4.778,18.028l94.327,25l4.778,-18.028l-94.327,-25Z" style="fill:#fff;fill-rule:nonzero;"/><path d="M181.177,645.1l-91.258,-34.561l-6.606,17.441l55.229,20.916l-77.943,39.062l-0.708,1.869l91.258,34.561l6.558,-17.317l-54.231,-20.538l76.993,-39.564l0.708,-1.869Z" style="fill:#fff;fill-rule:nonzero;"/><path d="M159.918,509.05l-14.549,-7.819l-33.949,63.173l85.957,46.194l33.949,-63.173l-14.549,-7.818l-25.183,46.861l-20.803,-11.179l22.343,-41.577l-14.549,-7.819l-22.343,41.577l-21.508,-11.558l25.184,-46.862Z" style="fill:#fff;fill-rule:nonzero;"/><path d="M246.348,468.396l38.46,-0.419l12.921,-18.114l-40.861,0.804c4.407,-11.913 -1.689,-26.079 -13.635,-34.601c-16.07,-11.463 -35.315,-8.337 -46.853,7.838l-25.703,36.033l79.442,56.668l10.753,-15.074l-25.291,-18.041l10.767,-15.094Zm-51.472,-13.942l12.394,-17.375c7.978,-11.185 17.391,-11.516 25.102,-6.016c6.733,4.803 11.514,12.802 2.374,25.616l-12.394,17.374l-27.476,-19.599Z" style="fill:#fff;fill-rule:nonzero;"/><path d="M281.424,320.46l14.228,46.164l-47.222,-9.51l-14.54,16.153l69.791,13.131l27.445,24.705l12.478,-13.861l-27.446,-24.706l-20.193,-68.229l-14.541,16.153Z" style="fill:#fff;fill-rule:nonzero;"/></g><circle cx="522.772" cy="185.074" r="22.606" style="fill:#fff;"/></svg>