<?xml version="1.0" encoding="UTF-8" standalone="no"?><!DOCTYPE svg PUBLIC "-//W3C//DTD SVG 1.1//EN" "http://www.w3.org/Graphics/SVG/1.1/DTD/svg11.dtd"><svg width="100%" height="100%" viewBox="0 0 1500 1500" version="1.1" xmlns="http://www.w3.org/2000/svg" xmlns:xlink="http://www.w3.org/1999/xlink" xml:space="preserve" xmlns:serif="http://www.serif.com/" style="fill-rule:evenodd;clip-rule:evenodd;stroke-linejoin:round;stroke-miterlimit:2;"><path d="M1500,1500l0,-1500l-1500,0l-0,1500l1500,0Zm-20.76,-1479.24l-0,1458.48c-0,-0 -1458.48,-0 -1458.48,-0c0,-0 0,-1458.48 0,-1458.48l1458.48,0Zm-31.627,28.837l-1400.81,0l-0,1400.81l1400.81,-0l-0,-1400.81Zm-1290.16,479.981l105.494,-246.06l714.693,-9.9c-0,0 360.36,-6.677 363.972,200.906c1.815,104.325 -123.966,182.47 -224.615,222.795c-113.121,45.322 -195.626,123.634 -201.216,151.585c-11.161,55.807 43.679,66.171 55.065,75.459c11.385,9.288 -87.602,28.377 -102.283,-4.88c-14.681,-33.257 1.014,-70.322 49.85,-124.552c48.837,-54.23 175.601,-101.716 244.485,-174.375c33.724,-35.573 72.933,-85.537 45.241,-181.565c-45.316,-157.147 -366.426,-125.538 -376.014,-121.344c-9.588,4.195 2.975,880.068 2.975,880.068c0,-0 52.912,-9.018 87.099,-9.229c34.744,-0.214 37.92,25.28 43.07,37.92c-166.192,0 -507.001,-0.468 -507.001,-0.468c-0,-0 9.831,-30.898 43.069,-35.111c34.16,-4.33 98.779,4.681 98.779,4.681l-0.469,-876.367l-223.773,7.49l-218.421,202.947Zm580.282,-212.352l-40.232,0l0,888.013l40.232,-0l-0,-888.013Z" style="fill:#aa9659;"/></svg>